<svg xmlns="http://www.w3.org/2000/svg" xmlns:xlink="http://www.w3.org/1999/xlink" width="500" zoomAndPan="magnify" viewBox="0 0 375 374.999991" height="500" preserveAspectRatio="xMidYMid meet" version="1.0"><defs><clipPath id="a76ba879d0"><path d="M 55.574219 14.738281 L 319.574219 14.738281 L 319.574219 360.488281 L 55.574219 360.488281 Z M 55.574219 14.738281 " clip-rule="nonzero"/></clipPath></defs><g clip-path="url(#a76ba879d0)"><path fill="#000000" d="M 182.628906 123.960938 L 161.605469 144.988281 L 281.960938 265.34375 L 186.875 360.253906 L 84.515625 257.894531 L 100.808594 241.601562 L 186.875 327.671875 L 248.976562 265.570312 L 229.695312 246.292969 L 192.605469 283.382812 L 192.359375 283.136719 L 192.132812 283.363281 L 55.738281 146.960938 L 72.027344 130.667969 L 192.386719 251.027344 L 213.410156 230 L 93.046875 109.652344 L 188.140625 14.738281 L 290.5 117.101562 L 274.210938 133.390625 L 188.140625 47.316406 L 126.042969 109.417969 L 145.320312 128.695312 L 182.410156 91.605469 L 182.660156 91.851562 L 182.886719 91.625 L 319.289062 228.027344 L 302.996094 244.320312 Z M 182.628906 123.960938 " fill-opacity="1" fill-rule="nonzero"/></g></svg>